#!OML:ASF I:\Actors\actors\Patient Classification 1\Patient 1\Session 1\Subject1.ASF
:FULLY-SPECIFIED
:DEGREES
481
root 0.162195 17.6482 8.86863 12.4723 39.0576 -15.5084
lowerback 12.3433 5.14947 1.93808
upperback -6.97391 6.83169 -4.4686
thorax -13.9006 2.75978 -7.72071
lowerneck -7.494 -13.9779 -15.3246
upperneck 7.0951 -20.7117 27.6961
head 8.2983 -9.17015 9.19465
rclavicle -3.33958e-014 5.40694e-014
rhumerus -30.4781 39.4855 -92.8032
rradius 114.7
rwrist -17.5779
rhand 45.0223 -66.5324
rfingers 7.12502
rthumb 66.4038 -71.1839
lclavicle -3.33958e-014 5.40694e-014
lhumerus -22.453 -3.04795 82.4146
lradius 119.884
lwrist -3.23943
lhand 62.3032 12.1715
lfingers 7.12502
lthumb 74.9381 -28.6186
rfemur -6.67691 15.2871 33.5698
rtibia -1.73045
rfoot -39.025 -46.1697
rtoes 33.0378
lfemur -29.7948 -38.1681 16.3701
ltibia 1.30129
lfoot 0.0743948 22.7707
ltoes -23.4186
482
root 0.182135 17.6492 8.85132 12.5259 38.4993 -15.2968
lowerback 11.9461 5.14605 1.92466
upperback -7.13451 6.84463 -4.32795
thorax -13.8612 2.78001 -7.52111
lowerneck -7.31233 -13.7829 -15.2933
upperneck 7.19342 -20.4961 27.864
head 8.26749 -9.06643 9.31466
rclavicle -1.46703e-013 2.54444e-014
rhumerus -29.6746 36.9588 -92.8165
rradius 116.365
rwrist -18.0995
rhand 43.5129 -66.5798
rfingers 7.12502
rthumb 65.2354 -73.3599
lclavicle -1.46703e-013 2.54444e-014
lhumerus -22.6251 -4.20757 81.7125
lradius 120.196
lwrist -2.91858
lhand 61.7006 12.4224
lfingers 7.12502
lthumb 74.8822 -26.1422
rfemur -6.75273 14.8199 33.2947
rtibia -1.35038
rfoot -38.2216 -45.5014
rtoes 32.5431
lfemur -29.2363 -37.8038 15.6461
ltibia 1.28941
lfoot 0.0161699 22.6539
ltoes -23.3262
483
root 0.206528 17.6503 8.83486 12.5226 37.9817 -15.103
lowerback 11.4527 5.09686 1.9574
upperback -7.25303 6.81293 -4.0987
thorax -13.7231 2.78689 -7.22084
lowerneck -7.34647 -13.5698 -15.1077
upperneck 7.57435 -20.2327 27.5527
head 8.26492 -8.92556 9.23471
rclavicle 1.82882e-014 2.70347e-014
rhumerus -28.737 34.4652 -92.496
rradius 117.825
rwrist -18.6124
rhand 45.5939 -66.4155
rfingers 7.12502
rthumb 66.8367 -70.2033
lclavicle 1.82882e-014 2.70347e-014
lhumerus -22.5534 -4.94692 81.1842
lradius 120.159
lwrist -2.25669
lhand 61.4462 13.2075
lfingers 7.12502
lthumb 74.8517 -24.4232
rfemur -6.731 14.5388 33.0102
rtibia -1.05514
rfoot -37.68 -44.9528
rtoes 32.2561
lfemur -28.6682 -37.6451 14.9814
ltibia 1.24389
lfoot -0.132891 22.7071
ltoes -22.8328
484
root 0.234527 17.6521 8.81693 12.4142 37.544 -14.9579
lowerback 11.0851 4.95318 2.08654
upperback -7.4102 6.67509 -3.8272
thorax -13.7156 2.72794 -6.92889
lowerneck -7.58067 -13.2935 -14.7412
upperneck 8.32654 -19.9141 26.9646
head 8.34723 -8.72958 9.0323
rclavicle -6.0033e-014 3.18055e-015
rhumerus -27.942 32.0837 -92.1475
rradius 119.06
rwrist -19.1187
rhand 44.5674 -66.2738
rfingers 7.12502
rthumb 66.0555 -71.5893
lclavicle -6.0033e-014 3.18055e-015
lhumerus -22.5539 -5.30336 80.76
lradius 119.92
lwrist -1.8757
lhand 61.5147 13.8088
lfingers 7.12502
lthumb 74.8603 -24.0731
rfemur -6.63163 14.2449 32.7693
rtibia -0.779766
rfoot -37.0925 -44.5574
rtoes 31.7431
lfemur -28.0746 -37.5111 14.2983
ltibia 1.22597
lfoot -0.226078 22.6663
ltoes -22.6741
485
root 0.262435 17.6545 8.79719 12.1767 37.1108 -14.8615
lowerback 10.8603 4.74301 2.29272
upperback -7.61442 6.46048 -3.56367
thorax -13.8521 2.61537 -6.69858
lowerneck -7.80766 -12.9631 -14.0148
upperneck 9.25035 -19.5525 26.1455
head 8.40769 -8.50397 8.69898
rclavicle 8.34896e-014 3.97569e-014
rhumerus -27.3811 29.7782 -91.8253
rradius 120.177
rwrist -19.408
rhand 43.831 -65.6234
rfingers 7.12502
rthumb 65.4845 -71.9725
lclavicle 8.34896e-014 3.97569e-014
lhumerus -22.8523 -5.66407 80.2293
lradius 119.846
lwrist -1.96124
lhand 61.4281 13.9937
lfingers 7.12502
lthumb 74.8493 -23.5708
rfemur -6.45187 13.9622 32.6003
rtibia -0.469751
rfoot -36.5118 -44.2595
rtoes 31.0661
lfemur -27.3769 -37.2055 13.4957
ltibia 1.29156
lfoot -0.336361 22.3892
ltoes -22.6609
486
root 0.288694 17.6556 8.77737 11.8943 36.6716 -14.7039
lowerback 10.665 4.54415 2.4812
upperback -7.77149 6.25342 -3.3255
thorax -13.949 2.50889 -6.48737
lowerneck -7.95898 -12.688 -13.1601
upperneck 10.1075 -19.2536 25.198
head 8.42491 -8.32114 8.28657
rclavicle -1.55052e-014 3.97569e-014
rhumerus -26.8658 27.4383 -91.2137
rradius 121.108
rwrist -19.3237
rhand 43.0634 -65.2405
rfingers 7.12502
rthumb 64.8808 -72.6146
lclavicle -1.55052e-014 3.97569e-014
lhumerus -23.0077 -6.24007 79.567
lradius 119.775
lwrist -2.04701
lhand 61.3259 13.9375
lfingers 7.12502
lthumb 74.8358 -23.2531
rfemur -6.17379 13.7334 32.398
rtibia -0.191308
rfoot -35.9565 -44.0417
rtoes 30.3646
lfemur -26.5743 -36.7018 12.4948
ltibia 1.38549
lfoot -0.523295 21.8898
ltoes -22.4243
487
root 0.314288 17.6562 8.75614 11.6265 36.2141 -14.5329
lowerback 10.53 4.42781 2.63684
upperback -7.91674 6.16164 -3.02031
thorax -14.0664 2.46299 -6.21267
lowerneck -8.09662 -12.4744 -12.6619
upperneck 10.9428 -19.0024 24.2836
head 8.49423 -8.17873 7.93609
rclavicle 2.94201e-014 -4.77083e-015
rhumerus -26.2766 25.1499 -90.0304
rradius 121.713
rwrist -18.9012
rhand 42.3314 -64.5947
rfingers 7.12502
rthumb 64.2974 -72.8996
lclavicle 2.94201e-014 -4.77083e-015
lhumerus -22.9681 -7.02164 79.1087
lradius 119.673
lwrist -1.86359
lhand 61.0937 13.8164
lfingers 7.12502
lthumb 74.8025 -22.527
rfemur -5.90989 13.5257 32.1694
rtibia 0.0800995
rfoot -35.409 -43.8021
rtoes 29.7082
lfemur -25.7755 -36.1126 11.483
ltibia 1.45376
lfoot -0.61977 21.3104
ltoes -22.4941
488
root 0.339575 17.6578 8.73273 11.3691 35.6735 -14.3733
lowerback 10.3952 4.29157 2.98288
upperback -8.04129 6.06431 -2.7989
thorax -14.1318 2.39325 -6.13395
lowerneck -8.45929 -12.2047 -12.2341
upperneck 11.97 -18.7097 23.5115
head 8.69478 -7.98612 7.65041
rclavicle 8.74653e-014 -3.18055e-015
rhumerus -25.5843 23.0956 -88.7554
rradius 122.086
rwrist -18.0904
rhand 42.1008 -63.9303
rfingers 7.12502
rthumb 64.1121 -72.5195
lclavicle 8.74653e-014 -3.18055e-015
lhumerus -22.7236 -7.70362 78.6237
lradius 119.544
lwrist -1.54443
lhand 60.9445 13.8599
lfingers 7.12502
lthumb 74.7794 -21.9414
rfemur -5.68673 13.3469 31.9278
rtibia 0.384457
rfoot -34.8867 -43.4846
rtoes 29.2085
lfemur -24.9664 -35.7217 10.5764
ltibia 1.45493
lfoot -0.624324 21.0427
ltoes -22.6414
489
root 0.362821 17.6595 8.70939 11.146 35.0641 -14.1564
lowerback 10.1647 4.10154 3.11443
upperback -8.12075 5.86454 -2.47655
thorax -14.1272 2.30765 -5.78858
lowerneck -8.92274 -11.8506 -11.8071
upperneck 13.0822 -18.2951 22.7076
head 8.9234 -7.73078 7.37289
rclavicle -3.61788e-014 4.29375e-014
rhumerus -24.9495 21.5537 -87.3236
rradius 122.372
rwrist -17.1972
rhand 41.4554 -63.3903
rfingers 7.12502
rthumb 63.5901 -72.7525
lclavicle -3.61788e-014 4.29375e-014
lhumerus -22.4024 -8.04011 78.2375
lradius 119.388
lwrist -1.38527
lhand 61.1288 14.036
lfingers 7.12502
lthumb 74.8078 -22.4354
rfemur -5.44403 13.2853 31.6397
rtibia 0.667252
rfoot -34.4185 -43.228
rtoes 28.7695
lfemur -24.15 -35.4862 9.68093
ltibia 1.45458
lfoot -0.722802 21.0414
ltoes -22.4791
